<svg width="291" height="91" viewBox="0 0 291 91" fill="none" xmlns="http://www.w3.org/2000/svg">
<path d="M245.312 81.4967C243.481 81.4967 241.802 81.1778 240.275 80.5401C238.783 79.8687 237.494 78.7946 236.409 77.3177C235.832 76.5121 235.34 75.3708 234.933 73.8939C234.56 72.3834 234.238 70.7051 233.967 68.8589C233.729 66.9792 233.543 64.9988 233.407 62.9177C233.271 60.8366 233.17 58.8394 233.102 56.9261C233.034 55.0128 233 53.2506 233 51.6394C233 49.9946 233 48.7023 233 47.7624C233 42.5596 233.119 37.3233 233.356 32.0534C233.594 26.7499 234.153 21.5471 235.035 16.445C235.239 15.2701 235.663 14.2464 236.307 13.3736C236.951 12.5009 237.732 11.7792 238.647 11.2086C239.563 10.638 240.564 10.2184 241.649 9.94985C242.735 9.64776 243.837 9.49671 244.956 9.49671C246.482 9.49671 247.907 9.73167 249.23 10.2016C250.553 10.638 251.706 11.2757 252.689 12.1149C253.673 12.9541 254.436 13.9946 254.979 15.2366C255.556 16.445 255.844 17.838 255.844 19.4156C255.844 21.2282 255.759 23.0575 255.589 24.9037C255.42 26.7163 255.335 28.5457 255.335 30.3918L255.386 33.6645C256.539 32.5568 257.574 31.4156 258.489 30.2408C259.439 29.0324 260.338 27.8072 261.186 26.5652C262.034 25.2897 262.831 23.9974 263.577 22.6883C264.357 21.3792 265.154 20.0534 265.968 18.7107C267.189 16.6631 269.055 15.6394 271.565 15.6394C272.854 15.6394 274.126 15.9079 275.381 16.445C276.67 16.9485 277.806 17.6534 278.789 18.5596C279.807 19.4659 280.621 20.5233 281.232 21.7317C281.876 22.9065 282.198 24.1652 282.198 25.5079C282.198 26.9848 281.808 28.4617 281.028 29.9387C280.248 31.4156 279.264 32.8254 278.077 34.168C276.924 35.5107 275.686 36.7527 274.363 37.8939C273.04 39.0352 271.819 40.0254 270.7 40.8645C273.447 41.9051 276.042 43.4659 278.484 45.5471C280.96 47.5946 283.114 49.9443 284.946 52.596C286.811 55.2142 288.287 58.0338 289.372 61.0547C290.457 64.0422 291 66.996 291 69.9163C291 71.8296 290.661 73.5079 289.982 74.9513C289.338 76.361 288.422 77.5527 287.235 78.5261C286.082 79.4659 284.708 80.1708 283.114 80.6408C281.554 81.1107 279.858 81.3457 278.026 81.3457C277.178 81.3457 276.11 81.245 274.821 81.0436C273.532 80.8422 272.277 80.5233 271.056 80.0869C269.835 79.617 268.784 79.0128 267.902 78.2743C267.054 77.5359 266.63 76.6128 266.63 75.5051C266.63 73.4911 266.749 71.5107 266.986 69.5638C267.223 67.617 267.342 65.6366 267.342 63.6226C267.342 62.3135 267.257 60.9037 267.088 59.3932C266.952 57.8492 266.613 56.4394 266.07 55.1638C265.561 53.8883 264.798 52.831 263.781 51.9918C262.763 51.1191 261.389 50.6827 259.66 50.6827C259.083 50.6827 258.523 50.7331 257.981 50.8338C257.438 50.9009 256.895 51.0016 256.353 51.1359C256.692 54.761 257.065 58.3527 257.472 61.9107C257.913 65.4687 258.354 69.0436 258.795 72.6352L258.846 73.1387C258.846 74.4813 258.337 75.6729 257.319 76.7135C256.336 77.7541 255.132 78.6268 253.707 79.3317C252.282 80.0366 250.79 80.5736 249.23 80.9429C247.704 81.3121 246.398 81.4967 245.312 81.4967Z" fill="#5CF0C5"/>
<path d="M193.178 44.3414C194.024 44.115 194.943 43.8039 195.937 43.4081C196.961 43.0043 197.877 42.5 198.686 41.8951C199.494 41.2902 200.112 40.5749 200.537 39.749C200.993 38.9151 201.072 37.9397 200.772 36.8229C200.489 35.7664 199.91 35.1129 199.034 34.8623C198.188 34.6036 197.282 34.6037 196.316 34.8625C195.169 35.1699 194.113 35.6955 193.148 36.4395C192.205 37.1451 191.347 37.9896 190.575 38.9729C189.825 39.9179 189.164 40.9523 188.592 42.0763C188.042 43.1619 187.601 44.2344 187.27 45.2936C189.217 45.1926 191.186 44.8752 193.178 44.3414ZM207.197 78.7287C202.759 79.9176 198.519 80.2126 194.477 79.6135C190.456 78.9762 186.795 77.6278 183.493 75.5685C180.213 73.4708 177.363 70.7406 174.941 67.3778C172.55 64.0069 170.776 60.1632 169.619 55.8467C168.527 51.7717 168.15 47.8287 168.488 44.0177C168.855 40.1986 169.877 36.7059 171.552 33.5394C173.227 30.373 175.55 27.6316 178.52 25.3151C181.482 22.9684 185.046 21.237 189.212 20.1208C191.808 19.4253 194.425 19.1121 197.064 19.1814C199.734 19.2427 202.213 19.7429 204.503 20.6823C206.793 21.6216 208.803 23.0243 210.532 24.8903C212.254 26.7261 213.498 29.0778 214.267 31.9453C215.067 34.9337 215.167 37.7216 214.567 40.309C213.958 42.8662 212.859 45.1663 211.272 47.2094C209.714 49.2444 207.753 50.983 205.39 52.4251C203.056 53.8591 200.531 54.9401 197.815 55.668C196.487 56.0239 195.138 56.3043 193.77 56.5093C192.431 56.7061 191.077 56.8426 189.706 56.9187C190.487 58.7476 191.549 60.1132 192.89 61.0154C194.262 61.9095 195.974 62.0816 198.027 61.5316C199.808 61.0544 201.402 60.3037 202.81 59.2794C204.24 58.2168 205.598 57.1252 206.883 56.0044C208.16 54.8534 209.396 53.7941 210.593 52.8265C211.811 51.8205 213.115 51.1315 214.504 50.7595C215.832 50.4036 217.112 50.3518 218.344 50.6039C219.576 50.8561 220.691 51.3338 221.688 52.0372C222.708 52.7023 223.571 53.5708 224.279 54.6429C225.017 55.7069 225.556 56.8728 225.896 58.1406C226.405 60.0422 226.507 61.8105 226.201 63.4454C225.895 65.0804 225.299 66.5989 224.413 68.001C223.519 69.3729 222.403 70.6424 221.066 71.8095C219.721 72.9465 218.263 73.9678 216.694 74.8735C215.147 75.7409 213.557 76.5068 211.923 77.171C210.282 77.805 208.706 78.3243 207.197 78.7287Z" fill="#5CF0C5"/>
<path d="M142.612 44.3414C141.767 44.115 140.847 43.8039 139.853 43.4081C138.829 43.0043 137.913 42.5 137.104 41.8951C136.296 41.2902 135.679 40.5749 135.253 39.749C134.797 38.9151 134.719 37.9397 135.018 36.8229C135.301 35.7664 135.881 35.1129 136.756 34.8623C137.602 34.6036 138.508 34.6037 139.474 34.8625C140.621 35.1699 141.677 35.6955 142.643 36.4395C143.586 37.1451 144.443 37.9896 145.215 38.9729C145.965 39.9179 146.626 40.9523 147.198 42.0763C147.749 43.1619 148.189 44.2344 148.52 45.2936C146.574 45.1926 144.604 44.8752 142.612 44.3414ZM128.594 78.7287C133.031 79.9176 137.271 80.2126 141.314 79.6135C145.334 78.9762 148.996 77.6278 152.297 75.5685C155.577 73.4708 158.428 70.7406 160.849 67.3778C163.241 64.0069 165.015 60.1632 166.171 55.8467C167.263 51.7717 167.64 47.8287 167.303 44.0177C166.935 40.1986 165.913 36.7059 164.238 33.5394C162.563 30.373 160.241 27.6316 157.27 25.3151C154.308 22.9684 150.744 21.237 146.578 20.1208C143.982 19.4253 141.365 19.1121 138.726 19.1814C136.057 19.2427 133.577 19.7429 131.287 20.6823C128.997 21.6216 126.987 23.0243 125.258 24.8903C123.537 26.7261 122.292 29.0778 121.524 31.9454C120.723 34.9337 120.623 37.7216 121.224 40.309C121.833 42.8662 122.931 45.1663 124.519 47.2094C126.076 49.2444 128.037 50.983 130.401 52.4251C132.734 53.8591 135.259 54.9401 137.976 55.668C139.304 56.0239 140.652 56.3043 142.021 56.5093C143.359 56.7061 144.714 56.8426 146.084 56.9187C145.303 58.7476 144.242 60.1132 142.9 61.0154C141.528 61.9095 139.816 62.0816 137.763 61.5316C135.982 61.0544 134.388 60.3037 132.98 59.2794C131.55 58.2168 130.193 57.1252 128.908 56.0044C127.631 54.8535 126.394 53.7941 125.197 52.8265C123.979 51.8205 122.675 51.1315 121.287 50.7595C119.959 50.4036 118.678 50.3518 117.446 50.6039C116.214 50.8561 115.099 51.3338 114.102 52.0372C113.082 52.7023 112.219 53.5708 111.511 54.6429C110.773 55.7069 110.234 56.8728 109.894 58.1406C109.385 60.0422 109.283 61.8105 109.589 63.4454C109.895 65.0804 110.491 66.5989 111.377 68.001C112.271 69.3729 113.387 70.6424 114.724 71.8095C116.07 72.9465 117.527 73.9678 119.096 74.8735C120.643 75.7409 122.233 76.5068 123.867 77.171C125.509 77.805 127.084 78.3243 128.594 78.7287Z" fill="#5CF0C5"/>
<path d="M98.0919 89.5501C96.3454 90.3645 94.5164 90.8298 92.6049 90.9462C90.6934 91.0625 88.7943 90.6031 86.9075 89.5681C85.9302 89.0209 84.8694 88.0795 83.7251 86.7439C82.6137 85.3929 81.4809 83.8239 80.3267 82.037C79.1725 80.2501 78.0319 78.3201 76.9047 76.2471C75.7775 74.174 74.7183 72.1605 73.7269 70.2065C72.7355 68.2525 71.8391 66.4593 71.0378 64.827C70.252 63.1419 69.6234 61.7937 69.1519 60.7826C67.947 58.1988 66.7412 55.5697 65.5343 52.8956C64.31 50.184 63.1351 47.4493 62.0096 44.6916C60.9171 41.9185 59.8827 39.1411 58.9065 36.3594C57.9633 33.5623 57.1286 30.783 56.4025 28.0215C56.0395 26.6407 56.0109 25.3319 56.3168 24.0951C56.6226 22.8583 57.1224 21.7362 57.8161 20.7289C58.4923 19.6841 59.3295 18.7694 60.3276 17.9849C61.3258 17.2003 62.3356 16.5698 63.3571 16.0935C64.6752 15.4789 66.1058 15.0625 67.6489 14.8444C69.1746 14.5889 70.6732 14.6195 72.1448 14.9363C73.599 15.2156 74.9689 15.8306 76.2546 16.7811C77.5229 17.6942 78.5586 19.012 79.3619 20.7346C79.781 21.6334 80.1594 22.5739 80.497 23.5562C80.8173 24.501 81.154 25.4382 81.5072 26.3677C81.6148 23.6733 81.9075 21.0749 82.3854 18.5725C82.8963 16.0547 83.669 13.7112 84.7035 11.542C85.7379 9.37276 87.0604 7.43397 88.6708 5.72562C90.3142 4.00189 92.2892 2.60222 94.5959 1.52661C96.6389 0.573923 98.75 0.068218 100.929 0.00949559C103.141 -0.0645928 105.254 0.294869 107.269 1.08788C109.317 1.86553 111.199 3.06232 112.915 4.67827C114.664 6.27886 116.106 8.2962 117.241 10.7303C118.272 12.9397 118.826 15.0748 118.904 17.1354C118.998 19.1432 118.706 21.0119 118.028 22.7413C117.383 24.4553 116.393 25.9884 115.058 27.3405C113.723 28.6926 112.149 29.7912 110.336 30.6363C109.084 31.2202 107.789 31.7556 106.452 32.2426C105.13 32.6767 103.843 33.1857 102.59 33.7696C100.218 34.8759 98.2893 36.1172 96.8048 37.4933C95.3028 38.8319 94.2545 40.3693 93.66 42.1055C93.0984 43.8262 92.9828 45.7722 93.3131 47.9432C93.6765 50.0989 94.5042 52.5623 95.7964 55.3335C96.6172 57.0935 97.5774 58.7657 98.6773 60.35C99.7771 61.9343 100.893 63.5109 102.026 65.0798C103.174 66.596 104.299 68.1462 105.398 69.7305C106.481 71.2773 107.432 72.9308 108.253 74.6908C108.69 75.627 108.828 76.6112 108.667 77.6435C108.522 78.6229 108.17 79.6307 107.61 80.6669C107.065 81.6502 106.379 82.6311 105.552 83.6096C104.74 84.5353 103.876 85.3938 102.962 86.1851C102.08 86.9611 101.196 87.6467 100.31 88.2421C99.4574 88.8222 98.718 89.2581 98.0919 89.5501Z" fill="#5CF0C5"/>
<path d="M29.0625 84.153C24.5 84.153 20.4219 83.3092 16.8281 81.6217C13.2344 79.9342 10.1875 77.653 7.6875 74.778C5.1875 71.903 3.28125 68.5436 1.96875 64.6998C0.65625 60.8248 0 56.7311 0 52.4186C0 49.5748 0.28125 46.7467 0.84375 43.9342C1.4375 41.0905 2.29688 38.3873 3.42188 35.8248C4.54688 33.2311 5.92188 30.8248 7.54688 28.6061C9.20312 26.3561 11.1094 24.4186 13.2656 22.7936C15.4531 21.1373 17.875 19.8405 20.5312 18.903C23.1875 17.9655 26.0781 17.4967 29.2031 17.4967C32.3906 17.4967 35.3125 17.9655 37.9688 18.903C40.625 19.8092 43.0312 21.0748 45.1875 22.6998C47.3438 24.3248 49.2344 26.2467 50.8594 28.4655C52.4844 30.653 53.8438 33.0436 54.9375 35.6373C56.0625 38.1998 56.8906 40.903 57.4219 43.7467C57.9844 46.5905 58.2656 49.4498 58.2656 52.3248C58.2656 56.6686 57.5938 60.778 56.25 64.653C54.9375 68.4967 53.0312 71.8717 50.5312 74.778C48.0312 77.653 44.9688 79.9342 41.3438 81.6217C37.7188 83.3092 33.625 84.153 29.0625 84.153ZM29.25 62.9655C31 62.9655 32.5 62.5905 33.75 61.8405C35.0312 61.0592 36.0781 60.0592 36.8906 58.8405C37.7031 57.6217 38.2969 56.2467 38.6719 54.7155C39.0781 53.1842 39.2812 51.6686 39.2812 50.1686C39.2812 48.7623 39.1094 47.278 38.7656 45.7155C38.4219 44.153 37.875 42.7155 37.125 41.403C36.375 40.0905 35.4062 39.0123 34.2188 38.1686C33.0312 37.3248 31.5781 36.903 29.8594 36.903C28.0156 36.903 26.4375 37.3717 25.125 38.3092C23.8438 39.2155 22.7812 40.3873 21.9375 41.8248C21.125 43.2311 20.5312 44.778 20.1562 46.4655C19.7812 48.153 19.5938 49.7623 19.5938 51.2936C19.5938 52.7311 19.7969 54.153 20.2031 55.5592C20.6094 56.9342 21.2031 58.1842 21.9844 59.3092C22.7969 60.403 23.7969 61.2936 24.9844 61.9811C26.2031 62.6373 27.625 62.9655 29.25 62.9655Z" fill="#5CF0C5"/>
<mask id="mask0_1_25" style="mask-type:alpha" maskUnits="userSpaceOnUse" x="0" y="0" width="291" height="91">
<path d="M245.312 81.4967C243.481 81.4967 241.802 81.1778 240.275 80.5401C238.783 79.8687 237.494 78.7946 236.409 77.3177C235.832 76.5121 235.34 75.3708 234.933 73.8939C234.56 72.3834 234.238 70.7051 233.967 68.8589C233.729 66.9792 233.543 64.9988 233.407 62.9177C233.271 60.8366 233.17 58.8394 233.102 56.9261C233.034 55.0128 233 53.2506 233 51.6394C233 49.9946 233 48.7023 233 47.7624C233 42.5596 233.119 37.3233 233.356 32.0534C233.594 26.7499 234.153 21.5471 235.035 16.445C235.239 15.2701 235.663 14.2464 236.307 13.3736C236.951 12.5009 237.732 11.7792 238.647 11.2086C239.563 10.638 240.564 10.2184 241.649 9.94985C242.735 9.64776 243.837 9.49671 244.956 9.49671C246.482 9.49671 247.907 9.73167 249.23 10.2016C250.553 10.638 251.706 11.2757 252.689 12.1149C253.673 12.9541 254.436 13.9946 254.979 15.2366C255.556 16.445 255.844 17.838 255.844 19.4156C255.844 21.2282 255.759 23.0575 255.589 24.9037C255.42 26.7163 255.335 28.5457 255.335 30.3918L255.386 33.6645C256.539 32.5568 257.574 31.4156 258.489 30.2408C259.439 29.0324 260.338 27.8072 261.186 26.5652C262.034 25.2897 262.831 23.9974 263.577 22.6883C264.357 21.3792 265.154 20.0534 265.968 18.7107C267.189 16.6631 269.055 15.6394 271.565 15.6394C272.854 15.6394 274.126 15.9079 275.381 16.445C276.67 16.9485 277.806 17.6534 278.789 18.5596C279.807 19.4659 280.621 20.5233 281.232 21.7317C281.876 22.9065 282.198 24.1652 282.198 25.5079C282.198 26.9848 281.808 28.4617 281.028 29.9387C280.248 31.4156 279.264 32.8254 278.077 34.168C276.924 35.5107 275.686 36.7527 274.363 37.8939C273.04 39.0352 271.819 40.0254 270.7 40.8645C273.447 41.9051 276.042 43.4659 278.484 45.5471C280.96 47.5946 283.114 49.9443 284.946 52.596C286.811 55.2142 288.287 58.0338 289.372 61.0547C290.457 64.0422 291 66.996 291 69.9163C291 71.8296 290.661 73.5079 289.982 74.9513C289.338 76.361 288.422 77.5527 287.235 78.5261C286.082 79.4659 284.708 80.1708 283.114 80.6408C281.554 81.1107 279.858 81.3457 278.026 81.3457C277.178 81.3457 276.11 81.245 274.821 81.0436C273.532 80.8422 272.277 80.5233 271.056 80.0869C269.835 79.617 268.784 79.0128 267.902 78.2743C267.054 77.5359 266.63 76.6128 266.63 75.5051C266.63 73.4911 266.749 71.5107 266.986 69.5638C267.223 67.617 267.342 65.6366 267.342 63.6226C267.342 62.3135 267.257 60.9037 267.088 59.3932C266.952 57.8492 266.613 56.4394 266.07 55.1638C265.561 53.8883 264.798 52.831 263.781 51.9918C262.763 51.1191 261.389 50.6827 259.66 50.6827C259.083 50.6827 258.523 50.7331 257.981 50.8338C257.438 50.9009 256.895 51.0016 256.353 51.1359C256.692 54.761 257.065 58.3527 257.472 61.9107C257.913 65.4687 258.354 69.0436 258.795 72.6352L258.846 73.1387C258.846 74.4813 258.337 75.6729 257.319 76.7135C256.336 77.7541 255.132 78.6268 253.707 79.3317C252.282 80.0366 250.79 80.5736 249.23 80.9429C247.704 81.3121 246.398 81.4967 245.312 81.4967Z" fill="#5CF0C5"/>
<path d="M193.178 44.3414C194.024 44.115 194.943 43.8039 195.937 43.4081C196.961 43.0043 197.877 42.5 198.686 41.8951C199.494 41.2902 200.112 40.5749 200.537 39.749C200.993 38.9151 201.072 37.9397 200.772 36.8229C200.489 35.7664 199.91 35.1129 199.034 34.8623C198.188 34.6036 197.282 34.6037 196.316 34.8625C195.169 35.1699 194.113 35.6955 193.148 36.4395C192.205 37.1451 191.347 37.9896 190.575 38.9729C189.825 39.9179 189.164 40.9523 188.592 42.0763C188.042 43.1619 187.601 44.2344 187.27 45.2936C189.217 45.1926 191.186 44.8752 193.178 44.3414ZM207.197 78.7287C202.759 79.9176 198.519 80.2126 194.477 79.6135C190.456 78.9762 186.795 77.6278 183.493 75.5685C180.213 73.4708 177.363 70.7406 174.941 67.3778C172.55 64.0069 170.776 60.1632 169.619 55.8467C168.527 51.7717 168.15 47.8287 168.488 44.0177C168.855 40.1986 169.877 36.7059 171.552 33.5394C173.227 30.373 175.55 27.6316 178.52 25.3151C181.482 22.9684 185.046 21.237 189.212 20.1208C191.808 19.4253 194.425 19.1121 197.064 19.1814C199.734 19.2427 202.213 19.7429 204.503 20.6823C206.793 21.6216 208.803 23.0243 210.532 24.8903C212.254 26.7261 213.498 29.0778 214.267 31.9453C215.067 34.9337 215.167 37.7216 214.567 40.309C213.958 42.8662 212.859 45.1663 211.272 47.2094C209.714 49.2444 207.753 50.983 205.39 52.4251C203.056 53.8591 200.531 54.9401 197.815 55.668C196.487 56.0239 195.138 56.3043 193.77 56.5093C192.431 56.7061 191.077 56.8426 189.706 56.9187C190.487 58.7476 191.549 60.1132 192.89 61.0154C194.262 61.9095 195.974 62.0816 198.027 61.5316C199.808 61.0544 201.402 60.3037 202.81 59.2794C204.24 58.2168 205.598 57.1252 206.883 56.0044C208.16 54.8534 209.396 53.7941 210.593 52.8265C211.811 51.8205 213.115 51.1315 214.504 50.7595C215.832 50.4036 217.112 50.3518 218.344 50.6039C219.576 50.8561 220.691 51.3338 221.688 52.0372C222.708 52.7023 223.571 53.5708 224.279 54.6429C225.017 55.7069 225.556 56.8728 225.896 58.1406C226.405 60.0422 226.507 61.8105 226.201 63.4454C225.895 65.0804 225.299 66.5989 224.413 68.001C223.519 69.3729 222.403 70.6424 221.066 71.8095C219.721 72.9465 218.263 73.9678 216.694 74.8735C215.147 75.7409 213.557 76.5068 211.923 77.171C210.282 77.805 208.706 78.3243 207.197 78.7287Z" fill="#5CF0C5"/>
<path d="M142.612 44.3414C141.767 44.115 140.847 43.8039 139.853 43.4081C138.829 43.0043 137.913 42.5 137.104 41.8951C136.296 41.2902 135.679 40.5749 135.253 39.749C134.797 38.9151 134.719 37.9397 135.018 36.8229C135.301 35.7664 135.881 35.1129 136.756 34.8623C137.602 34.6036 138.508 34.6037 139.474 34.8625C140.621 35.1699 141.677 35.6955 142.643 36.4395C143.586 37.1451 144.443 37.9896 145.215 38.9729C145.965 39.9179 146.626 40.9523 147.198 42.0763C147.749 43.1619 148.189 44.2344 148.52 45.2936C146.574 45.1926 144.604 44.8752 142.612 44.3414ZM128.594 78.7287C133.031 79.9176 137.271 80.2126 141.314 79.6135C145.334 78.9762 148.996 77.6278 152.297 75.5685C155.577 73.4708 158.428 70.7406 160.849 67.3778C163.241 64.0069 165.015 60.1632 166.171 55.8467C167.263 51.7717 167.64 47.8287 167.303 44.0177C166.935 40.1986 165.913 36.7059 164.238 33.5394C162.563 30.373 160.241 27.6316 157.27 25.3151C154.308 22.9684 150.744 21.237 146.578 20.1208C143.982 19.4253 141.365 19.1121 138.726 19.1814C136.057 19.2427 133.577 19.7429 131.287 20.6823C128.997 21.6216 126.987 23.0243 125.258 24.8903C123.537 26.7261 122.292 29.0778 121.524 31.9454C120.723 34.9337 120.623 37.7216 121.224 40.309C121.833 42.8662 122.931 45.1663 124.519 47.2094C126.076 49.2444 128.037 50.983 130.401 52.4251C132.734 53.8591 135.259 54.9401 137.976 55.668C139.304 56.0239 140.652 56.3043 142.021 56.5093C143.359 56.7061 144.714 56.8426 146.084 56.9187C145.303 58.7476 144.242 60.1132 142.9 61.0154C141.528 61.9095 139.816 62.0816 137.763 61.5316C135.982 61.0544 134.388 60.3037 132.98 59.2794C131.55 58.2168 130.193 57.1252 128.908 56.0044C127.631 54.8535 126.394 53.7941 125.197 52.8265C123.979 51.8205 122.675 51.1315 121.287 50.7595C119.959 50.4036 118.678 50.3518 117.446 50.6039C116.214 50.8561 115.099 51.3338 114.102 52.0372C113.082 52.7023 112.219 53.5708 111.511 54.6429C110.773 55.7069 110.234 56.8728 109.894 58.1406C109.385 60.0422 109.283 61.8105 109.589 63.4454C109.895 65.0804 110.491 66.5989 111.377 68.001C112.271 69.3729 113.387 70.6424 114.724 71.8095C116.07 72.9465 117.527 73.9678 119.096 74.8735C120.643 75.7409 122.233 76.5068 123.867 77.171C125.509 77.805 127.084 78.3243 128.594 78.7287Z" fill="#5CF0C5"/>
<path d="M98.0919 89.5501C96.3454 90.3645 94.5164 90.8298 92.6049 90.9462C90.6934 91.0625 88.7943 90.6031 86.9075 89.5681C85.9302 89.0209 84.8694 88.0795 83.7251 86.7439C82.6137 85.3929 81.4809 83.8239 80.3267 82.037C79.1725 80.2501 78.0319 78.3201 76.9047 76.2471C75.7775 74.174 74.7183 72.1605 73.7269 70.2065C72.7355 68.2525 71.8391 66.4593 71.0378 64.827C70.252 63.1419 69.6234 61.7937 69.1519 60.7826C67.947 58.1988 66.7412 55.5697 65.5343 52.8956C64.31 50.184 63.1351 47.4493 62.0096 44.6916C60.9171 41.9185 59.8827 39.1411 58.9065 36.3594C57.9633 33.5623 57.1286 30.783 56.4025 28.0215C56.0395 26.6407 56.0109 25.3319 56.3168 24.0951C56.6226 22.8583 57.1224 21.7362 57.8161 20.7289C58.4923 19.6841 59.3295 18.7694 60.3276 17.9849C61.3258 17.2003 62.3356 16.5698 63.3571 16.0935C64.6752 15.4789 66.1058 15.0625 67.6489 14.8444C69.1746 14.5889 70.6732 14.6195 72.1448 14.9363C73.599 15.2156 74.9689 15.8306 76.2546 16.7811C77.5229 17.6942 78.5586 19.012 79.3619 20.7346C79.781 21.6334 80.1594 22.5739 80.497 23.5562C80.8173 24.501 81.154 25.4382 81.5072 26.3677C81.6148 23.6733 81.9075 21.0749 82.3854 18.5725C82.8963 16.0547 83.669 13.7112 84.7035 11.542C85.7379 9.37276 87.0604 7.43397 88.6708 5.72562C90.3142 4.00189 92.2892 2.60222 94.5959 1.52661C96.6389 0.573923 98.75 0.068218 100.929 0.00949559C103.141 -0.0645928 105.254 0.294869 107.269 1.08788C109.317 1.86553 111.199 3.06232 112.915 4.67827C114.664 6.27886 116.106 8.2962 117.241 10.7303C118.272 12.9397 118.826 15.0748 118.904 17.1354C118.998 19.1432 118.706 21.0119 118.028 22.7413C117.383 24.4553 116.393 25.9884 115.058 27.3405C113.723 28.6926 112.149 29.7912 110.336 30.6363C109.084 31.2202 107.789 31.7556 106.452 32.2426C105.13 32.6767 103.843 33.1857 102.59 33.7696C100.218 34.8759 98.2893 36.1172 96.8048 37.4933C95.3028 38.8319 94.2545 40.3693 93.66 42.1055C93.0984 43.8262 92.9828 45.7722 93.3131 47.9432C93.6765 50.0989 94.5042 52.5623 95.7964 55.3335C96.6172 57.0935 97.5774 58.7657 98.6773 60.35C99.7771 61.9343 100.893 63.5109 102.026 65.0798C103.174 66.596 104.299 68.1462 105.398 69.7305C106.481 71.2773 107.432 72.9308 108.253 74.6908C108.69 75.627 108.828 76.6112 108.667 77.6435C108.522 78.6229 108.17 79.6307 107.61 80.6669C107.065 81.6502 106.379 82.6311 105.552 83.6096C104.74 84.5353 103.876 85.3938 102.962 86.1851C102.08 86.9611 101.196 87.6467 100.31 88.2421C99.4574 88.8222 98.718 89.2581 98.0919 89.5501Z" fill="#5CF0C5"/>
<path d="M29.0625 84.153C24.5 84.153 20.4219 83.3092 16.8281 81.6217C13.2344 79.9342 10.1875 77.653 7.6875 74.778C5.1875 71.903 3.28125 68.5436 1.96875 64.6998C0.65625 60.8248 0 56.7311 0 52.4186C0 49.5748 0.28125 46.7467 0.84375 43.9342C1.4375 41.0905 2.29688 38.3873 3.42188 35.8248C4.54688 33.2311 5.92188 30.8248 7.54688 28.6061C9.20312 26.3561 11.1094 24.4186 13.2656 22.7936C15.4531 21.1373 17.875 19.8405 20.5312 18.903C23.1875 17.9655 26.0781 17.4967 29.2031 17.4967C32.3906 17.4967 35.3125 17.9655 37.9688 18.903C40.625 19.8092 43.0312 21.0748 45.1875 22.6998C47.3438 24.3248 49.2344 26.2467 50.8594 28.4655C52.4844 30.653 53.8438 33.0436 54.9375 35.6373C56.0625 38.1998 56.8906 40.903 57.4219 43.7467C57.9844 46.5905 58.2656 49.4498 58.2656 52.3248C58.2656 56.6686 57.5938 60.778 56.25 64.653C54.9375 68.4967 53.0312 71.8717 50.5312 74.778C48.0312 77.653 44.9688 79.9342 41.3438 81.6217C37.7188 83.3092 33.625 84.153 29.0625 84.153ZM29.25 62.9655C31 62.9655 32.5 62.5905 33.75 61.8405C35.0312 61.0592 36.0781 60.0592 36.8906 58.8405C37.7031 57.6217 38.2969 56.2467 38.6719 54.7155C39.0781 53.1842 39.2812 51.6686 39.2812 50.1686C39.2812 48.7623 39.1094 47.278 38.7656 45.7155C38.4219 44.153 37.875 42.7155 37.125 41.403C36.375 40.0905 35.4062 39.0123 34.2188 38.1686C33.0312 37.3248 31.5781 36.903 29.8594 36.903C28.0156 36.903 26.4375 37.3717 25.125 38.3092C23.8438 39.2155 22.7812 40.3873 21.9375 41.8248C21.125 43.2311 20.5312 44.778 20.1562 46.4655C19.7812 48.153 19.5938 49.7623 19.5938 51.2936C19.5938 52.7311 19.7969 54.153 20.2031 55.5592C20.6094 56.9342 21.2031 58.1842 21.9844 59.3092C22.7969 60.403 23.7969 61.2936 24.9844 61.9811C26.2031 62.6373 27.625 62.9655 29.25 62.9655Z" fill="#5CF0C5"/>
</mask>
<g mask="url(#mask0_1_25)">
</g>
</svg>
